<?xml version="1.0" encoding="UTF-8"?>
<svg width="16px" height="13px" viewBox="0 0 16 13" version="1.1" xmlns="http://www.w3.org/2000/svg" xmlns:xlink="http://www.w3.org/1999/xlink">
    <defs></defs>
    <g id="Page-1" stroke="none" stroke-width="1" fill="none" fill-rule="evenodd" opacity="0.6">
        <g id="Desktop" transform="translate(-1025.000000, -3235.000000)" fill="#FFFFFF">
            <g id="Footer" transform="translate(78.000000, 3039.000000)">
                <g id="Group" transform="translate(135.000000, 56.000000)">
                    <g id="Subscribe" transform="translate(800.000000, 0.818182)">
                        <g id="Social-Icons" transform="translate(0.000000, 125.181818)">
                            <g id="Twitter">
                                <path d="M26.3709819,17.6576712 C26.3709819,21.9975012 23.0695852,27 17.0318115,27 C15.2424203,26.9990557 13.4927276,26.4862421 12,25.5252374 C12.2598466,25.5535658 12.5210273,25.5687452 12.7824891,25.5707146 C14.2674723,25.5707411 15.7072025,25.0729197 16.859704,24.1609195 C15.4403253,24.1268772 14.2033373,23.2102522 13.7911194,21.8870565 C13.9949968,21.9263082 14.2023505,21.9458931 14.410173,21.9455272 C14.7034566,21.9465401 14.9954146,21.9071701 15.2773817,21.8285857 C13.7272796,21.5005872 12.6267966,20.1574899 12.6424015,18.6126937 C13.0983371,18.8226991 13.6083486,18.9629601 14.130665,18.9830085 C12.6833518,17.9939123 12.2437042,16.0962254 13.1146967,14.5977011 C14.7567657,16.6374235 17.2228016,17.8877566 19.8802585,18.027986 C19.8236955,17.782768 19.7952814,17.5321888 19.7955389,17.2808596 C19.7718064,15.4920457 21.2415119,14.0231725 23.0782572,14 C23.9903026,14.0004165 24.8598576,14.3754895 25.4730873,15.0329835 C26.2111204,14.8911763 26.9174175,14.6228055 27.5590577,14.2403798 C27.3188954,14.9951505 26.8054286,15.6392813 26.1141547,16.0529735 C26.7660492,15.9769612 27.4020835,15.8038609 28,15.5397301 C27.5616715,16.1948507 27.0073959,16.7689774 26.3629769,17.2353823 C26.3689806,17.3783108 26.3709819,17.5212394 26.3709819,17.6576712 Z" id="icon-twitter"></path>
                            </g>
                        </g>
                    </g>
                </g>
            </g>
        </g>
    </g>
</svg>