<?xml version="1.0" encoding="UTF-8"?>
<svg width="16px" height="16px" viewBox="0 0 16 16" version="1.1" xmlns="http://www.w3.org/2000/svg" xmlns:xlink="http://www.w3.org/1999/xlink">
    <defs></defs>
    <g id="Page-1" stroke="none" stroke-width="1" fill="none" fill-rule="evenodd" opacity="0.6">
        <g id="Desktop" transform="translate(-1103.000000, -3233.000000)" fill="#FFFFFF">
            <g id="Footer" transform="translate(78.000000, 3039.000000)">
                <g id="Group" transform="translate(135.000000, 56.000000)">
                    <g id="Subscribe" transform="translate(800.000000, 0.818182)">
                        <g id="Social-Icons" transform="translate(0.000000, 125.181818)">
                            <g id="Instagram" transform="translate(78.000000, 0.000000)">
                                <path d="M12,16.6278629 C12,14.0719648 14.058965,12 16.6278629,12 L23.3721371,12 C25.9280352,12 28,14.058965 28,16.6278629 L28,23.3721371 C28,25.9280352 25.941035,28 23.3721371,28 L16.6278629,28 C14.0719648,28 12,25.941035 12,23.3721371 L12,16.6278629 Z M13.4482759,16.7548291 L13.4482759,23.2451709 C13.4482759,25.0740634 14.9286702,26.5517241 16.7548291,26.5517241 L23.2451709,26.5517241 C25.0740634,26.5517241 26.5517241,25.0713298 26.5517241,23.2451709 L26.5517241,16.7548291 C26.5517241,14.9259366 25.0713298,13.4482759 23.2451709,13.4482759 L16.7548291,13.4482759 C14.9259366,13.4482759 13.4482759,14.9286702 13.4482759,16.7548291 Z M20,24.0689655 C17.7527724,24.0689655 15.9310345,22.2472276 15.9310345,20 C15.9310345,17.7527724 17.7527724,15.9310345 20,15.9310345 C22.2472276,15.9310345 24.0689655,17.7527724 24.0689655,20 C24.0689655,22.2472276 22.2472276,24.0689655 20,24.0689655 Z M20,22.6206897 C21.4473669,22.6206897 22.6206897,21.4473669 22.6206897,20 C22.6206897,18.5526331 21.4473669,17.3793103 20,17.3793103 C18.5526331,17.3793103 17.3793103,18.5526331 17.3793103,20 C17.3793103,21.4473669 18.5526331,22.6206897 20,22.6206897 Z M24.2068966,16.6896552 C23.6736561,16.6896552 23.2413793,16.2573784 23.2413793,15.7241379 C23.2413793,15.1908975 23.6736561,14.7586207 24.2068966,14.7586207 C24.740137,14.7586207 25.1724138,15.1908975 25.1724138,15.7241379 C25.1724138,16.2573784 24.740137,16.6896552 24.2068966,16.6896552 Z" id="icon-instagram"></path>
                            </g>
                        </g>
                    </g>
                </g>
            </g>
        </g>
    </g>
</svg>