<?xml version="1.0" encoding="UTF-8"?>
<svg width="16px" height="14px" viewBox="0 0 16 14" version="1.1" xmlns="http://www.w3.org/2000/svg" xmlns:xlink="http://www.w3.org/1999/xlink">
    <defs></defs>
    <g id="Page-1" stroke="none" stroke-width="1" fill="none" fill-rule="evenodd">
        <g id="Desktop" transform="translate(-1033.000000, -3159.000000)" fill="#BABDC3">
            <g id="Footer" transform="translate(78.000000, 3039.000000)">
                <g id="Group" transform="translate(135.000000, 56.000000)">
                    <g id="Subscribe" transform="translate(800.000000, 0.818182)">
                        <g id="Form/Input" transform="translate(0.000000, 45.181818)">
                            <path d="M33.993,32.0000123 L22.007,32.0000123 C20.9017456,31.9989231 20.0049508,31.1052561 20,30.0000123 L20,20.0000123 C19.9999967,19.4683642 20.2116711,18.9585927 20.5882591,18.5833181 C20.9648472,18.2080434 21.4753552,17.9981515 22.007,18.0000123 L33.993,18.0000123 C35.0982544,18.0011015 35.9950492,18.8947684 36,20.0000123 L36,30.0000123 C36.0000033,30.5316603 35.7883289,31.0414318 35.4117409,31.4167065 C35.0351528,31.7919811 34.5246448,32.001873 33.993,32.0000123 L33.993,32.0000123 L33.993,32.0000123 Z M34,30.0000123 L34,21.4710123 L29.055,26.5610123 C28.7736274,26.8428309 28.3917365,27.0011926 27.9935,27.0011926 C27.5952635,27.0011926 27.2133726,26.8428309 26.932,26.5610123 L22,21.4830123 L22,30.0000123 L34,30.0000123 L34,30.0000123 L34,30.0000123 Z M32.629,20.0000123 L23.359,20.0000123 L27.994,24.7790123 L32.629,20.0000123 L32.629,20.0000123 Z" id="icon-mail"></path>
                        </g>
                    </g>
                </g>
            </g>
        </g>
    </g>
</svg>