<svg height="12" viewBox="0 0 16 12" width="16" xmlns="http://www.w3.org/2000/svg"><path d="m265 21.9992194h14c.552285 0 1-.4477153 1-1 0-.5522848-.447715-1-1-1h-14c-.552285 0-1 .4477152-1 1 0 .5522847.447715 1 1 1zm0-5h14c.552285 0 1-.4477153 1-1 0-.5522848-.447715-1-1-1h-14c-.552285 0-1 .4477152-1 1 0 .5522847.447715 1 1 1zm0-5h14c.552285 0 1-.4477153 1-1 0-.5522848-.447715-1.00000004-1-1.00000004h-14c-.552285 0-1 .44771524-1 1.00000004 0 .5522847.447715 1 1 1z" fill="#6daba4" transform="translate(-264 -9.999219)"/></svg>